<?xml version="1.0" encoding="UTF-8" standalone="no"?>
<svg
   xmlns:dc="http://purl.org/dc/elements/1.1/"
   xmlns:cc="http://creativecommons.org/ns#"
   xmlns:rdf="http://www.w3.org/1999/02/22-rdf-syntax-ns#"
   xmlns:svg="http://www.w3.org/2000/svg"
   xmlns="http://www.w3.org/2000/svg"
   xmlns:sodipodi="http://sodipodi.sourceforge.net/DTD/sodipodi-0.dtd"
   xmlns:inkscape="http://www.inkscape.org/namespaces/inkscape"
   version="1.0"
   width="2145.4609"
   height="421.12549"
   viewBox="0 0 1716.3687 336.90039"
   preserveAspectRatio="xMidYMid meet"
   id="svg3444"
   inkscape:version="0.91 r13725"
   sodipodi:docname="logo_gray.svg">
  <defs
     id="defs3448" />
  <sodipodi:namedview
     pagecolor="#ffffff"
     bordercolor="#666666"
     borderopacity="1"
     objecttolerance="10"
     gridtolerance="10"
     guidetolerance="10"
     inkscape:pageopacity="0"
     inkscape:pageshadow="2"
     inkscape:window-width="1366"
     inkscape:window-height="712"
     id="namedview3446"
     showgrid="false"
     inkscape:zoom="0.73952369"
     inkscape:cx="428.23846"
     inkscape:cy="147.91387"
     inkscape:window-x="0"
     inkscape:window-y="30"
     inkscape:window-maximized="1"
     inkscape:current-layer="svg3444"
     fit-margin-top="0"
     fit-margin-left="0"
     fit-margin-right="0"
     fit-margin-bottom="0" />
  <metadata
     id="metadata3438">
Created by potrace 1.12, written by Peter Selinger 2001-2015
<rdf:RDF>
  <cc:Work
     rdf:about="">
    <dc:format>image/svg+xml</dc:format>
    <dc:type
       rdf:resource="http://purl.org/dc/dcmitype/StillImage" />
    <dc:title></dc:title>
  </cc:Work>
</rdf:RDF>
</metadata>
  <g
     style="font-style:normal;font-variant:normal;font-weight:normal;font-stretch:normal;font-size:32px;line-height:125%;font-family:Montserrat;-inkscape-font-specification:Montserrat;letter-spacing:-6.27199984px;word-spacing:0px;fill:#11100f;fill-opacity:1;stroke:none"
     id="text3320">
    <path
       d="m 523.63493,222.72254 q 30.36,0 49.632,-24.024 l 26.4,27.192 q -31.416,35.376 -74.184,35.376 -42.504,0 -70.224,-26.928 -27.456,-26.928 -27.456,-67.848 0,-41.184 27.984,-68.639999 28.248,-27.456 68.904,-27.456 45.408,0 76.032,34.583999 l -25.608,29.04 q -19.536,-24.288 -48.576,-24.288 -23.232,0 -39.864,15.312 -16.368,15.048 -16.368,40.92 0,25.608 15.576,41.184 15.576,15.576 37.752,15.576 z"
       style="font-weight:bold;font-size:264px;font-family:Montserrat;-inkscape-font-specification:'Montserrat Bold';text-align:start;letter-spacing:-6.27199984px;text-anchor:start;fill:#11100f;fill-opacity:1"
       id="path4204" />
    <path
       d="m 674.81831,211.63454 q 10.296,12.672 27.72,12.672 17.424,0 27.456,-12.672 10.296,-12.936 10.296,-35.112 l 0,-101.903999 41.184,0 0,103.223999 q 0,40.128 -22.176,61.776 -22.176,21.384 -56.76,21.384 -34.584,0 -57.024,-21.648 -22.176,-21.648 -22.176,-61.512 l 0,-103.223999 41.184,0 0,101.903999 q 0,22.176 10.296,35.112 z"
       style="font-weight:bold;font-size:264px;font-family:Montserrat;-inkscape-font-specification:'Montserrat Bold';text-align:start;letter-spacing:-6.27199984px;text-anchor:start;fill:#11100f;fill-opacity:1"
       id="path4206" />
    <path
       d="m 899.00594,259.15454 -80.784,0 0,-184.535999 71.808,0 q 18.744,0 32.208,4.488 13.728,4.488 20.592,12.144 12.408,14.255999 12.408,32.207999 0,21.648 -13.992,32.208 -4.752,3.696 -6.6,4.752 -1.848,0.792 -6.6,2.904 17.16,3.696 27.192,15.576 10.296,11.616 10.296,29.04 0,19.272 -13.2,34.056 -15.312,17.16 -53.328,17.16 z m -39.6,-109.824 19.536,0 q 17.16,0 25.344,-3.696 8.448,-3.696 8.448,-15.84 0,-12.408 -7.656,-16.368 -7.656,-3.96 -25.872,-3.96 l -19.8,0 0,39.864 z m 0,74.976 28.248,0 q 17.688,0 26.4,-4.224 8.976,-4.488 8.976,-17.16 0,-12.936 -9.504,-16.896 -9.24,-4.224 -29.832,-4.224 l -24.288,0 0,42.504 z"
       style="font-weight:bold;font-size:264px;font-family:Montserrat;-inkscape-font-specification:'Montserrat Bold';text-align:start;letter-spacing:-6.27199984px;text-anchor:start;fill:#11100f;fill-opacity:1"
       id="path4208" />
    <path
       d="m 1127.0215,74.618541 0,36.695999 -91.872,0 0,38.016 82.632,0 0,35.112 -82.632,0 0,38.28 94.776,0 0,36.432 -135.95996,0 0,-184.535999 133.05596,0 z"
       style="font-weight:bold;font-size:264px;font-family:Montserrat;-inkscape-font-specification:'Montserrat Bold';text-align:start;letter-spacing:-6.27199984px;text-anchor:start;fill:#11100f;fill-opacity:1"
       id="path4210" />
    <path
       d="m 1310.1159,135.86654 q 0,44.352 -35.112,57.288 l 46.728,66 -50.688,0 -40.92,-58.872 -28.512,0 0,58.872 -41.184,0 0,-184.535999 69.96,0 q 43.032,0 61.248,14.52 18.48,14.519999 18.48,46.727999 z m -78.408,28.776 q 21.12,0 28.776,-6.864 7.656,-6.864 7.656,-21.648 0,-15.048 -7.92,-20.592 -7.92,-5.544 -27.72,-5.544 l -30.888,0 0,54.648 30.096,0 z"
       style="font-weight:bold;font-size:264px;font-family:Montserrat;-inkscape-font-specification:'Montserrat Bold';text-align:start;letter-spacing:-6.27199984px;text-anchor:start;fill:#11100f;fill-opacity:1"
       id="path4212" />
    <path
       d="m 1345.9684,74.618541 41.184,0 0,184.535999 -41.184,0 0,-184.535999 z"
       style="font-weight:bold;font-size:264px;font-family:Montserrat;-inkscape-font-specification:'Montserrat Bold';text-align:start;letter-spacing:-6.27199984px;text-anchor:start;fill:#11100f;fill-opacity:1"
       id="path4214" />
    <path
       d="m 1504.4654,110.25854 0,148.896 -41.184,0 0,-148.896 -52.272,0 0,-35.639999 145.728,0 0,35.639999 -52.272,0 z"
       style="font-weight:bold;font-size:264px;font-family:Montserrat;-inkscape-font-specification:'Montserrat Bold';text-align:start;letter-spacing:-6.27199984px;text-anchor:start;fill:#11100f;fill-opacity:1"
       id="path4216" />
    <path
       d="m 1713.4648,74.618541 0,36.695999 -91.872,0 0,38.016 82.632,0 0,35.112 -82.632,0 0,38.28 94.776,0 0,36.432 -135.96,0 0,-184.535999 133.056,0 z"
       style="font-weight:bold;font-size:264px;font-family:Montserrat;-inkscape-font-specification:'Montserrat Bold';text-align:start;letter-spacing:-6.27199984px;text-anchor:start;fill:#11100f;fill-opacity:1"
       id="path4218" />
  </g>
  <g
     id="g3410"
     transform="matrix(0.1,0,0,-0.1,-2.3408414e-5,336.90039)"
     style="fill:#11100f;fill-opacity:1;stroke:none">
    <path
       style="fill:#11100f;fill-opacity:1"
       id="path3408"
       d="M 843,2947 0,2525 0,1685 0,845 845,422 1690,0 l 845,422 845,423 0,840 0,840 -845,423 c -465,232 -846,422 -848,421 -1,0 -381,-190 -844,-422 z m 713,-645 135,-67 134,68 135,68 0,164 c 0,90 3,166 8,168 11,5 597,-297 596,-308 -1,-5 -198,-108 -437,-230 l -436,-220 -418,209 c -230,115 -431,217 -447,227 l -29,18 309,154 309,155 3,-169 2,-169 136,-68 z m -574,-524 438,-223 0,-447 0,-448 -310,155 c -171,85 -310,157 -310,160 0,3 79,44 175,91 l 175,85 0,122 0,123 -140,69 -140,70 -165,-83 c -91,-45 -167,-82 -170,-82 -3,0 -5,142 -5,315 0,173 3,315 7,315 3,0 203,-100 445,-222 z m 1863,-97 -8,-310 -163,82 -164,82 -140,-70 -140,-69 0,-106 c 0,-58 3,-114 6,-125 4,-13 49,-41 133,-82 69,-35 141,-75 160,-91 l 34,-28 -302,-153 -301,-152 0,450 0,450 443,219 c 243,121 444,218 445,217 2,-2 1,-143 -3,-314 z"
       inkscape:connector-curvature="0" />
  </g>
</svg>
