<?xml version="1.0" standalone="no"?>
<!DOCTYPE svg PUBLIC "-//W3C//DTD SVG 20010904//EN"
 "http://www.w3.org/TR/2001/REC-SVG-20010904/DTD/svg10.dtd">
<svg version="1.0" xmlns="http://www.w3.org/2000/svg"
 width="339.000000pt" height="339.000000pt" viewBox="0 0 339.000000 339.000000"
 preserveAspectRatio="xMidYMid meet">
<metadata>
Created by potrace 1.11, written by Peter Selinger 2001-2013
</metadata>
<g transform="translate(0.000000,339.000000) scale(0.100000,-0.100000)"
fill="#000000" stroke="none">
<path d="M838 2959 l-838 -420 0 -844 0 -843 846 -423 845 -423 845 422 c734
367 844 425 845 445 0 12 1 391 2 842 l1 820 -839 422 c-462 232 -847 422
-855 422 -8 0 -392 -189 -852 -420z m577 -415 c2 -89 7 -160 13 -166 6 -6 67
-38 138 -73 l127 -63 125 64 c69 35 130 65 135 67 5 1 10 76 11 165 2 89 5
164 7 167 4 4 238 -104 249 -115 3 -3 48 -27 100 -54 108 -55 197 -104 222
-120 15 -10 10 -16 -35 -40 -101 -54 -414 -215 -615 -315 l-202 -101 -440 220
c-242 122 -440 224 -440 228 1 9 593 303 598 297 3 -2 6 -75 7 -161z m-486
-733 c207 -104 401 -202 431 -218 l55 -29 3 -442 c1 -243 0 -442 -4 -442 -15
0 -604 302 -600 309 3 4 79 43 170 86 l165 80 2 53 c0 28 1 85 2 126 l2 74
-142 71 -142 71 -159 -80 c-87 -44 -163 -80 -168 -80 -7 0 -12 592 -5 608 3 7
45 -13 390 -187z m1914 -48 c-5 -349 -6 -369 -22 -365 -8 2 -81 36 -163 77
l-149 74 -139 -69 -140 -70 0 -119 c0 -83 4 -122 13 -129 11 -10 41 -26 197
-110 73 -38 114 -72 103 -83 -13 -11 -557 -284 -568 -284 -7 0 -10 154 -11
441 l-1 442 436 215 c240 119 439 216 442 216 3 1 4 -106 2 -236z"/>
</g>
</svg>
