<svg xmlns="http://www.w3.org/2000/svg" width="256" height="256"><rect rx="32" ry="32" width="256" height="256" fill="#245a48"/><path d="M83.9 61.92L40 84.021v87.894L84.005 194.1l43.984 22.06 44.027-22.08L216 171.935V84.043l-43.984-22.166c-24.2-12.117-44.07-22.08-44.154-22.037-.064 0-19.848 9.941-43.942 22.08zm37.148 33.77l7.005 3.52 7.005-3.583 7.005-3.542V83.51c0-4.693.149-8.682.425-8.789.573-.277 31.078 15.53 31.035 16.107-.063.277-10.317 5.653-22.756 12.032L128.053 114.4l-21.758-10.965c-11.973-6.016-22.438-11.35-23.287-11.862l-1.486-.96 16.09-8.042 16.091-8.107.17 8.832.085 8.853zm-29.953 27.457l22.884 11.626v46.848l-16.133-8.106c-8.916-4.48-16.133-8.235-16.133-8.384 0-.214 4.097-2.347 9.128-4.8l9.085-4.438v-12.8l-7.281-3.626-7.302-3.67-8.598 4.331c-4.755 2.347-8.703 4.31-8.852 4.31-.17 0-.276-7.467-.276-16.491 0-9.046.17-16.49.383-16.49.148 0 10.55 5.226 23.138 11.626zm97.012 5.056l-.425 16.213-8.449-4.267-8.554-4.309-7.282 3.67-7.323 3.626v5.547c0 2.986.17 5.93.318 6.506.213.683 2.548 2.134 6.92 4.31 3.61 1.813 7.345 3.925 8.343 4.757l1.74 1.45-15.708 8.022-15.708 7.979V134.58l23.16-11.434c12.65-6.358 23.137-11.435 23.137-11.392.128.106.085 7.466-.127 16.426z" fill="#f4f7f6"/></svg>