<svg xmlns="http://www.w3.org/2000/svg" width="256" height="256"><defs><linearGradient id="a" x1="0%" y1="130%" y2="0%"><stop offset="0%" stop-color="#24575D"/><stop offset="100%" stop-color="#245d33"/></linearGradient><filter id="b" y="0"><feOffset in="SourceAlpha" dy="8"/><feGaussianBlur stdDeviation="4"/><feComponentTransfer><feFuncA type="linear" slope=".08"/></feComponentTransfer><feMerge><feMergeNode/><feMergeNode in="SourceGraphic"/></feMerge></filter></defs><path fill="url(#a)" d="M0 0h256v256H0z"/><path d="M85.153 63.914L42.5 85.347v85.243l42.755 21.516 42.734 21.394 42.777-21.414L213.5 170.61V85.37l-42.734-21.497c-23.513-11.751-42.818-21.414-42.9-21.372-.062 0-19.284 9.641-42.694 21.414zm36.092 32.751l6.806 3.414 6.806-3.475 6.806-3.435v-8.317c0-4.551.145-8.42.413-8.523.557-.27 30.196 15.062 30.154 15.621-.061.268-10.024 5.482-22.11 11.669l-22.069 11.192-21.14-10.634c-11.632-5.835-21.8-11.008-22.625-11.504l-1.444-.932 15.633-7.799 15.634-7.863.165 8.566.083 8.586zm-29.102 26.629l22.234 11.275v45.434l-15.674-7.862c-8.663-4.344-15.675-7.986-15.675-8.13 0-.208 3.98-2.276 8.869-4.656l8.827-4.304v-12.413l-7.075-3.517-7.094-3.559-8.354 4.2c-4.62 2.277-8.456 4.18-8.6 4.18-.166 0-.269-7.241-.269-15.992 0-8.774.166-15.993.373-15.993.143 0 10.25 5.068 22.48 11.275zm94.256 4.903l-.413 15.724-8.208-4.138-8.311-4.18-7.076 3.56-7.115 3.517v5.38c0 2.895.166 5.75.31 6.309.206.662 2.475 2.07 6.723 4.18 3.507 1.758 7.136 3.806 8.106 4.613l1.69 1.407-15.261 7.78-15.262 7.738v-45.706l22.502-11.088c12.29-6.167 22.48-11.09 22.48-11.048.124.102.082 7.24-.124 15.93z" fill="#F9FBFB" filter="url(#b)"/></svg>