<svg xmlns="http://www.w3.org/2000/svg" width="425" height="425" viewBox="-60 -60 119.94445 119.94444"><defs><linearGradient id="a" x1="0%" y1="130%" y2="0%"><stop offset="0%" stop-color="#24575D"/><stop offset="100%" stop-color="#245d33"/></linearGradient><filter id="b" y="0"><feOffset in="SourceAlpha" dy="4"/><feGaussianBlur stdDeviation="2"/><feComponentTransfer><feFuncA type="linear" slope=".15"/></feComponentTransfer><feMerge><feMergeNode/><feMergeNode in="SourceGraphic"/></feMerge></filter></defs><path fill="url(#a)" d="M-60-60H59.94V59.94H-60z"/><path fill="#F4F7F6" filter="url(#b)" d="M-20.07-31.8l-20.68 10.36v41.2l20.73 10.4L.7 40.5l20.74-10.35 20.72-10.38v-41.2L21.44-31.82C10.04-37.5.68-42.17.64-42.15c-.03 0-9.35 4.66-20.7 10.35zm17.5 15.83l3.3 1.65L4.03-16l3.3-1.66v-4.02c0-2.2.07-4.07.2-4.12.27-.13 14.64 7.28 14.62 7.55-.03.13-4.86 2.65-10.72 5.64L.73-7.2l-10.25-5.14c-5.64-2.82-10.57-5.32-10.97-5.56l-.7-.45 7.58-3.77 7.58-3.8.08 4.14.04 4.15zM-16.68-3.1L-5.9 2.35v21.96l-7.6-3.8c-4.2-2.1-7.6-3.86-7.6-3.93 0-.1 1.93-1.1 4.3-2.25l4.28-2.08v-6l-3.43-1.7-3.44-1.72-4.05 2.03c-2.24 1.1-4.1 2.02-4.17 2.02-.08 0-.13-3.5-.13-7.73 0-4.24.08-7.73.18-7.73.07 0 4.97 2.45 10.9 5.45zm45.7 2.37l-.2 7.6-3.98-2-4.03-2.02-3.43 1.72-3.45 1.7v2.6c0 1.4.08 2.78.15 3.05.1.32 1.2 1 3.26 2.02 1.7.85 3.46 1.84 3.93 2.23l.82.68-7.4 3.76-7.4 3.74V2.26L18.2-3.1c5.96-2.98 10.9-5.36 10.9-5.34.06.05.04 3.5-.06 7.7z"/></svg>
