<svg xmlns="http://www.w3.org/2000/svg" width="256" height="256"><rect rx="32" ry="32" width="256" height="256" fill="#245a48"/><path d="M83.9 62.04L40 84.1v87.735l44.005 22.145L127.989 216l44.027-22.04L216 171.855V84.123l-43.984-22.126c-24.2-12.095-44.07-22.04-44.154-21.997-.064 0-19.848 9.923-43.942 22.04zm37.148 33.709l7.005 3.513 7.005-3.576 7.005-3.536v-8.56c0-4.684.149-8.665.425-8.772.573-.277 31.078 15.502 31.035 16.078-.063.276-10.317 5.642-22.756 12.01l-22.714 11.519-21.758-10.945c-11.973-6.005-22.438-11.33-23.287-11.84l-1.486-.959 16.09-8.027 16.091-8.093.17 8.816.085 8.837zm-29.953 27.407l22.884 11.605v46.763l-16.133-8.092c-8.916-4.471-16.133-8.22-16.133-8.368 0-.214 4.097-2.343 9.128-4.792l9.085-4.43v-12.776l-7.281-3.62-7.302-3.663-8.598 4.323c-4.755 2.343-8.703 4.302-8.852 4.302-.17 0-.276-7.453-.276-16.46 0-9.03.17-16.46.383-16.46.148 0 10.55 5.216 23.138 11.604zm97.012 5.047l-.425 16.183-8.449-4.259-8.554-4.301-7.282 3.663-7.323 3.62v5.537c0 2.98.17 5.919.318 6.494.213.681 2.548 2.13 6.92 4.302 3.61 1.81 7.345 3.918 8.343 4.748l1.74 1.448-15.708 8.007-15.708 7.965v-47.042l23.16-11.413c12.65-6.347 23.137-11.414 23.137-11.371.128.105.085 7.452-.127 16.396z" fill="#F9FBFB"/></svg>