<?xml version="1.0" encoding="UTF-8" standalone="no"?>
<svg
   xmlns:dc="http://purl.org/dc/elements/1.1/"
   xmlns:cc="http://creativecommons.org/ns#"
   xmlns:rdf="http://www.w3.org/1999/02/22-rdf-syntax-ns#"
   xmlns:svg="http://www.w3.org/2000/svg"
   xmlns="http://www.w3.org/2000/svg"
   xmlns:sodipodi="http://sodipodi.sourceforge.net/DTD/sodipodi-0.dtd"
   xmlns:inkscape="http://www.inkscape.org/namespaces/inkscape"
   version="1.0"
   width="422.5"
   height="421.12549"
   viewBox="0 0 338 336.90039"
   preserveAspectRatio="xMidYMid meet"
   id="svg3412"
   inkscape:version="0.48.4 r9939"
   sodipodi:docname="icon_white_transparent.svg">
  <defs
     id="defs3416" />
  <sodipodi:namedview
     pagecolor="#ffffff"
     bordercolor="#666666"
     borderopacity="1"
     objecttolerance="10"
     gridtolerance="10"
     guidetolerance="10"
     inkscape:pageopacity="0"
     inkscape:pageshadow="2"
     inkscape:window-width="1366"
     inkscape:window-height="713"
     id="namedview3414"
     showgrid="false"
     inkscape:zoom="1.2262611"
     inkscape:cx="102.19479"
     inkscape:cy="218.14277"
     inkscape:window-x="0"
     inkscape:window-y="30"
     inkscape:window-maximized="1"
     inkscape:current-layer="svg3412"
     fit-margin-top="0"
     fit-margin-left="0"
     fit-margin-right="0"
     fit-margin-bottom="0" />
  <metadata
     id="metadata3406">
Created by potrace 1.12, written by Peter Selinger 2001-2015
<rdf:RDF>
  <cc:Work
     rdf:about="">
    <dc:format>image/svg+xml</dc:format>
    <dc:type
       rdf:resource="http://purl.org/dc/dcmitype/StillImage" />
    <dc:title></dc:title>
  </cc:Work>
</rdf:RDF>
</metadata>
  <g
     transform="matrix(0.1,0,0,-0.1,0,336.90039)"
     id="g3410"
     style="fill:#000000;stroke:none">
    <path
       d="M 843,2947 0,2525 0,1685 0,845 845,422 1690,0 l 845,422 845,423 0,840 0,840 -845,423 c -465,232 -846,422 -848,421 -1,0 -381,-190 -844,-422 z m 713,-645 135,-67 134,68 135,68 0,164 c 0,90 3,166 8,168 11,5 597,-297 596,-308 -1,-5 -198,-108 -437,-230 l -436,-220 -418,209 c -230,115 -431,217 -447,227 l -29,18 309,154 309,155 3,-169 2,-169 136,-68 z m -574,-524 438,-223 0,-447 0,-448 -310,155 c -171,85 -310,157 -310,160 0,3 79,44 175,91 l 175,85 0,122 0,123 -140,69 -140,70 -165,-83 c -91,-45 -167,-82 -170,-82 -3,0 -5,142 -5,315 0,173 3,315 7,315 3,0 203,-100 445,-222 z m 1863,-97 -8,-310 -163,82 -164,82 -140,-70 -140,-69 0,-106 c 0,-58 3,-114 6,-125 4,-13 49,-41 133,-82 69,-35 141,-75 160,-91 l 34,-28 -302,-153 -301,-152 0,450 0,450 443,219 c 243,121 444,218 445,217 2,-2 1,-143 -3,-314 z"
       id="path3408"
       style="fill:#11100f;fill-opacity:1;stroke:none"
       inkscape:connector-curvature="0" />
  </g>
</svg>
