<?xml version="1.0" encoding="UTF-8" standalone="no"?>
<svg
   xmlns:dc="http://purl.org/dc/elements/1.1/"
   xmlns:cc="http://creativecommons.org/ns#"
   xmlns:rdf="http://www.w3.org/1999/02/22-rdf-syntax-ns#"
   xmlns:svg="http://www.w3.org/2000/svg"
   xmlns="http://www.w3.org/2000/svg"
   xmlns:sodipodi="http://sodipodi.sourceforge.net/DTD/sodipodi-0.dtd"
   xmlns:inkscape="http://www.inkscape.org/namespaces/inkscape"
   version="1.0"
   width="2145.4609"
   height="421.25049"
   viewBox="0 0 1716.3687 337.00039"
   preserveAspectRatio="xMidYMid meet"
   id="svg3444"
   inkscape:version="0.91 r13725"
   sodipodi:docname="logo_white.svg">
  <defs
     id="defs3448" />
  <sodipodi:namedview
     pagecolor="#ffffff"
     bordercolor="#666666"
     borderopacity="1"
     objecttolerance="10"
     gridtolerance="10"
     guidetolerance="10"
     inkscape:pageopacity="0"
     inkscape:pageshadow="2"
     inkscape:window-width="1366"
     inkscape:window-height="712"
     id="namedview3446"
     showgrid="false"
     inkscape:zoom="0.79311236"
     inkscape:cx="149.33536"
     inkscape:cy="199.36549"
     inkscape:window-x="0"
     inkscape:window-y="30"
     inkscape:window-maximized="1"
     inkscape:current-layer="svg3444"
     fit-margin-top="0"
     fit-margin-left="0"
     fit-margin-right="0"
     fit-margin-bottom="0" />
  <metadata
     id="metadata3438">
Created by potrace 1.12, written by Peter Selinger 2001-2015
<rdf:RDF>
  <cc:Work
     rdf:about="">
    <dc:format>image/svg+xml</dc:format>
    <dc:type
       rdf:resource="http://purl.org/dc/dcmitype/StillImage" />
    <dc:title></dc:title>
  </cc:Work>
</rdf:RDF>
</metadata>
  <g
     style="font-style:normal;font-variant:normal;font-weight:normal;font-stretch:normal;font-size:32px;line-height:125%;font-family:Montserrat;-inkscape-font-specification:Montserrat;letter-spacing:-6.27199984px;word-spacing:0px;fill:#ffffff;fill-opacity:1;stroke:none"
     id="text3320">
    <path
       d="m 523.63493,222.82255 q 30.36,0 49.632,-24.024 l 26.4,27.192 q -31.416,35.376 -74.184,35.376 -42.504,0 -70.224,-26.928 -27.456,-26.928 -27.456,-67.848 0,-41.184 27.984,-68.640003 28.248,-27.456 68.904,-27.456 45.408,0 76.032,34.584003 l -25.608,29.04 q -19.536,-24.288 -48.576,-24.288 -23.232,0 -39.864,15.312 -16.368,15.048 -16.368,40.92 0,25.608 15.576,41.184 15.576,15.576 37.752,15.576 z"
       style="font-weight:bold;font-size:264px;font-family:Montserrat;-inkscape-font-specification:'Montserrat Bold';text-align:start;letter-spacing:-6.27199984px;text-anchor:start;fill:#ffffff;fill-opacity:1"
       id="path4815" />
    <path
       d="m 674.81831,211.73455 q 10.296,12.672 27.72,12.672 17.424,0 27.456,-12.672 10.296,-12.936 10.296,-35.112 l 0,-101.904003 41.184,0 0,103.224003 q 0,40.128 -22.176,61.776 -22.176,21.384 -56.76,21.384 -34.584,0 -57.024,-21.648 -22.176,-21.648 -22.176,-61.512 l 0,-103.224003 41.184,0 0,101.904003 q 0,22.176 10.296,35.112 z"
       style="font-weight:bold;font-size:264px;font-family:Montserrat;-inkscape-font-specification:'Montserrat Bold';text-align:start;letter-spacing:-6.27199984px;text-anchor:start;fill:#ffffff;fill-opacity:1"
       id="path4817" />
    <path
       d="m 899.00594,259.25455 -80.784,0 0,-184.536003 71.808,0 q 18.744,0 32.208,4.488 13.728,4.488 20.592,12.144 12.408,14.256003 12.408,32.208003 0,21.648 -13.992,32.208 -4.752,3.696 -6.6,4.752 -1.848,0.792 -6.6,2.904 17.16,3.696 27.192,15.576 10.296,11.616 10.296,29.04 0,19.272 -13.2,34.056 -15.312,17.16 -53.328,17.16 z m -39.6,-109.824 19.536,0 q 17.16,0 25.344,-3.696 8.448,-3.696 8.448,-15.84 0,-12.408 -7.656,-16.368 -7.656,-3.96 -25.872,-3.96 l -19.8,0 0,39.864 z m 0,74.976 28.248,0 q 17.688,0 26.4,-4.224 8.976,-4.488 8.976,-17.16 0,-12.936 -9.504,-16.896 -9.24,-4.224 -29.832,-4.224 l -24.288,0 0,42.504 z"
       style="font-weight:bold;font-size:264px;font-family:Montserrat;-inkscape-font-specification:'Montserrat Bold';text-align:start;letter-spacing:-6.27199984px;text-anchor:start;fill:#ffffff;fill-opacity:1"
       id="path4819" />
    <path
       d="m 1127.0215,74.718547 0,36.696003 -91.872,0 0,38.016 82.632,0 0,35.112 -82.632,0 0,38.28 94.776,0 0,36.432 -135.95996,0 0,-184.536003 133.05596,0 z"
       style="font-weight:bold;font-size:264px;font-family:Montserrat;-inkscape-font-specification:'Montserrat Bold';text-align:start;letter-spacing:-6.27199984px;text-anchor:start;fill:#ffffff;fill-opacity:1"
       id="path4821" />
    <path
       d="m 1310.1159,135.96655 q 0,44.352 -35.112,57.288 l 46.728,66 -50.688,0 -40.92,-58.872 -28.512,0 0,58.872 -41.184,0 0,-184.536003 69.96,0 q 43.032,0 61.248,14.52 18.48,14.520003 18.48,46.728003 z m -78.408,28.776 q 21.12,0 28.776,-6.864 7.656,-6.864 7.656,-21.648 0,-15.048 -7.92,-20.592 -7.92,-5.544 -27.72,-5.544 l -30.888,0 0,54.648 30.096,0 z"
       style="font-weight:bold;font-size:264px;font-family:Montserrat;-inkscape-font-specification:'Montserrat Bold';text-align:start;letter-spacing:-6.27199984px;text-anchor:start;fill:#ffffff;fill-opacity:1"
       id="path4823" />
    <path
       d="m 1345.9684,74.718547 41.184,0 0,184.536003 -41.184,0 0,-184.536003 z"
       style="font-weight:bold;font-size:264px;font-family:Montserrat;-inkscape-font-specification:'Montserrat Bold';text-align:start;letter-spacing:-6.27199984px;text-anchor:start;fill:#ffffff;fill-opacity:1"
       id="path4825" />
    <path
       d="m 1504.4654,110.35855 0,148.896 -41.184,0 0,-148.896 -52.272,0 0,-35.640003 145.728,0 0,35.640003 -52.272,0 z"
       style="font-weight:bold;font-size:264px;font-family:Montserrat;-inkscape-font-specification:'Montserrat Bold';text-align:start;letter-spacing:-6.27199984px;text-anchor:start;fill:#ffffff;fill-opacity:1"
       id="path4827" />
    <path
       d="m 1713.4648,74.718547 0,36.696003 -91.872,0 0,38.016 82.632,0 0,35.112 -82.632,0 0,38.28 94.776,0 0,36.432 -135.96,0 0,-184.536003 133.056,0 z"
       style="font-weight:bold;font-size:264px;font-family:Montserrat;-inkscape-font-specification:'Montserrat Bold';text-align:start;letter-spacing:-6.27199984px;text-anchor:start;fill:#ffffff;fill-opacity:1"
       id="path4829" />
  </g>
  <g
     id="g3410"
     transform="matrix(0.1,0,0,-0.1,-75.651346,332.96565)"
     style="fill:#ffffff;fill-opacity:1;stroke:none">
    <path
       style="fill:#ffffff;fill-opacity:1"
       id="path3408"
       d="m 1599.5132,2906.6526 -842.99997,-422 0,-840 0,-839.99997 844.99997,-423 845,-422.000003 845,422.000003 845,423 0,839.99997 0,840 -845,423 c -465,232 -846,422 -848,421 -1,0 -381,-190 -844,-422 z m 713,-645 135,-67 134,68 135,68 0,164 c 0,90 3,166 8,168 11,5 597,-297 596,-308 -1,-5 -198,-108 -437,-230 l -436,-220 -418,209 c -230,115 -431,217 -447,227 l -29,18 309,154 309,155 3,-169 2,-169 136,-68 z m -574,-524 438,-223 0,-447 0,-447.99997 -310,155 c -171,85 -310,157 -310,160 0,3 79,44 175,90.99997 l 175,85 0,122 0,123 -140,69 -140,70 -165,-83 c -91,-45 -167,-82 -170,-82 -3,0 -5,142 -5,315 0,173 3,315 7,315 3,0 203,-100 445,-222 z m 1863,-97 -8,-310 -163,82 -164,82 -140,-70 -140,-69 0,-106 c 0,-58 3,-114 6,-125 4,-13 49,-41 133,-82 69,-35 141,-74.99997 160,-90.99997 l 34,-28 -302,-153 -301,-152 0,449.99997 0,450 443,219 c 243,121 444,218 445,217 2,-2 1,-143 -3,-314 z"
       inkscape:connector-curvature="0" />
  </g>
</svg>
